# xmcd
# 
# Track frame offsets:
#     150
#     15332
#     35795
#     50425
#     75067
#     90137
#     105630
#     116250
#     128825
# 
# Disc length: 1905
# 
# Revision: 3
# Processed by: cddbd v1.5.2PL0 Copyright (c) Steve Scherf et al.
# Submitted via: BonkEnc v1.0.8
# 
DISCID=56076f09
DTITLE=B.B. King with The Crusaders - Take It Home
DYEAR=1979
DGENRE=Blues
TTITLE0=Better Not Look Down
TTITLE1=Same Old Story (Same Old Song)
TTITLE2=Happy Birthday Blues
TTITLE3=I've Always Been Lonely
TTITLE4=Secondhand Woman
TTITLE5=Tonight I'm Gonna Make You A Star
TTITLE6=The beginning Of The End
TTITLE7=A Story Everybody Knows
TTITLE8=Take It Home
EXTD=
EXTT0=
EXTT1=
EXTT2=
EXTT3=
EXTT4=
EXTT5=
EXTT6=
EXTT7=
EXTT8=
PLAYORDER=
